<svg width="16" height="16" viewBox="0 0 16 16" fill="none" xmlns="http://www.w3.org/2000/svg">
<g id="&#240;&#159;&#167;&#172;arrow.left">
<path id="shape" d="M3.5 7.5H13.5C13.646 7.5 13.7658 7.54683 13.8595 7.6405C13.9532 7.73417 14 7.854 14 8C14 8.146 13.9532 8.26583 13.8595 8.3595C13.7658 8.45317 13.646 8.5 13.5 8.5H3.5C3.354 8.5 3.23417 8.45317 3.1405 8.3595C3.04683 8.26583 3 8.146 3 8C3 7.854 3.04683 7.73417 3.1405 7.6405C3.23417 7.54683 3.354 7.5 3.5 7.5ZM3.703 8L7.8595 12.1405C7.95317 12.2448 8 12.3647 8 12.5C8 12.6353 7.9505 12.7525 7.8515 12.8515C7.7525 12.9505 7.63533 13 7.5 13C7.36467 13 7.24483 12.9532 7.1405 12.8595L2.6405 8.3595C2.54683 8.25517 2.5 8.13533 2.5 8C2.5 7.86467 2.54683 7.74483 2.6405 7.6405L7.1405 3.1405C7.24483 3.04683 7.36467 3 7.5 3C7.63533 3 7.7525 3.0495 7.8515 3.1485C7.9505 3.2475 8 3.36467 8 3.5C8 3.63533 7.95317 3.75517 7.8595 3.8595L3.703 8Z" fill="#1C1C1C"/>
</g>
</svg>
