<svg width="16" height="16" viewBox="0 0 16 16" fill="none" xmlns="http://www.w3.org/2000/svg">
<g id="&#240;&#159;&#167;&#172;d.chevron-right">
<path id="shape" d="M7.078 2.328C7.17167 2.24467 7.281 2.203 7.406 2.203C7.531 2.203 7.64033 2.24467 7.734 2.328L12.906 7.656C12.9997 7.74967 13.0465 7.86434 13.0465 8C13.0465 8.13567 12.9997 8.25034 12.906 8.344L7.734 13.672C7.64033 13.7553 7.531 13.797 7.406 13.797C7.281 13.797 7.17167 13.7502 7.078 13.6565C6.98433 13.5628 6.9375 13.4535 6.9375 13.3285C6.9375 13.2035 6.98433 13.0942 7.078 13.0005L11.953 8.0005L7.078 3.0005C6.98433 2.90684 6.9375 2.7975 6.9375 2.6725C6.9375 2.5475 6.98433 2.43284 7.078 2.3285V2.328ZM3.078 2.328C3.17167 2.24467 3.281 2.203 3.406 2.203C3.531 2.203 3.64033 2.24467 3.734 2.328L8.906 7.656C8.99967 7.74967 9.0465 7.86434 9.0465 8C9.0465 8.13567 8.99967 8.25034 8.906 8.344L3.734 13.672C3.64033 13.7553 3.531 13.797 3.406 13.797C3.281 13.797 3.17167 13.7502 3.078 13.6565C2.98433 13.5628 2.9375 13.4535 2.9375 13.3285C2.9375 13.2035 2.98433 13.0942 3.078 13.0005L7.953 8.0005L3.078 3.0005C2.98433 2.90684 2.9375 2.7975 2.9375 2.6725C2.9375 2.5475 2.98433 2.43284 3.078 2.3285V2.328Z" fill="white"/>
</g>
</svg>
