<svg width="16" height="16" viewBox="0 0 16 16" fill="none" xmlns="http://www.w3.org/2000/svg">
<g id="DIVE-app-logomark-16px" clip-path="url(#clip0_226_5744)">
<g id="bg">
<path d="M0 3.125C0 1.65186 0 0.915291 0.457646 0.457646C0.915291 0 1.65186 0 3.125 0H12.875C14.3481 0 15.0847 0 15.5424 0.457646C16 0.915291 16 1.65186 16 3.125V12.875C16 14.3481 16 15.0847 15.5424 15.5424C15.0847 16 14.3481 16 12.875 16H3.125C1.65186 16 0.915291 16 0.457646 15.5424C0 15.0847 0 14.3481 0 12.875V3.125Z" fill="#012278"/>
<path d="M0 3.125C0 1.65186 0 0.915291 0.457646 0.457646C0.915291 0 1.65186 0 3.125 0H12.875C14.3481 0 15.0847 0 15.5424 0.457646C16 0.915291 16 1.65186 16 3.125V12.875C16 14.3481 16 15.0847 15.5424 15.5424C15.0847 16 14.3481 16 12.875 16H3.125C1.65186 16 0.915291 16 0.457646 15.5424C0 15.0847 0 14.3481 0 12.875V3.125Z" fill="url(#paint0_linear_226_5744)"/>
</g>
<rect id="rect-01" x="10.667" y="10.6666" width="5.33333" height="5.33333" transform="rotate(-90 10.667 10.6666)" fill="#1C4CCB"/>
<rect id="rect-02" x="5.33301" y="10.6666" width="5.33333" height="5.33333" transform="rotate(-90 5.33301 10.6666)" fill="#1140BD"/>
<path id="rect-03" d="M10.667 16H12.8753C14.3484 16 15.085 16 15.5426 15.5423C16.0003 15.0847 16.0003 14.3481 16.0003 12.875V10.6666H10.667V16Z" fill="#0334B6"/>
<rect id="rect-04" x="5.33301" width="5.33333" height="5.33333" fill="#2B5EE7"/>
<path id="rect-05" d="M4.66255e-07 3.125L0 5.33333L5.33333 5.33333L5.33333 4.66255e-07L3.125 0C3.11265 0 3.10034 0 3.08809 2.69969e-07C1.63953 3.21899e-05 0.911454 0.00383818 0.457646 0.457646C4.76837e-07 0.915291 4.66255e-07 1.65186 4.66255e-07 3.125Z" fill="#164DDB"/>
<path id="rect-06" d="M12.9085 1.971e-07C14.3595 2.60996e-05 15.0884 0.00345606 15.5426 0.457646C16.0003 0.915291 16.0003 1.65186 16.0003 3.125V5.33333L10.667 5.33333L10.667 0H12.8753C12.8864 0 12.8975 0 12.9085 1.971e-07Z" fill="#4776F5"/>
<path id="text-improved" fill-rule="evenodd" clip-rule="evenodd" d="M1 11V6H3.5C4.32843 6 5 6.67157 5 7.5V9.5C5 10.3284 4.32843 11 3.5 11H1ZM4 9.5C4 9.77614 3.77614 10 3.5 10H2V7H3.5C3.77614 7 4 7.22386 4 7.5V9.5ZM7 6H6V11H7V6ZM12.528 6H12V11H12.528H13H15V10H13V9H15V8H13V7H15V6H13H12.528ZM8.93183 11L7.5 6H8.60643L9.5 9.12037L10.3936 6H11.5L10.0682 11H8.93183Z" fill="white"/>
</g>
<defs>
<linearGradient id="paint0_linear_226_5744" x1="8" y1="0" x2="8" y2="16.7059" gradientUnits="userSpaceOnUse">
<stop offset="0.355653" stop-color="#0037C5"/>
<stop offset="1" stop-color="#012278"/>
</linearGradient>
<clipPath id="clip0_226_5744">
<rect width="16" height="16" fill="white"/>
</clipPath>
</defs>
</svg>
