<svg width="16" height="16" viewBox="0 0 16 16" fill="none" xmlns="http://www.w3.org/2000/svg">
<g id="&#240;&#159;&#167;&#172;folder.opened">
<path id="shape" d="M13.719 7H3.7815L2.2815 13H12.219L13.719 7ZM13 6V5H7.5935L5.5935 3H1.9995V10L2.906 6.375C2.93733 6.26033 2.99717 6.16917 3.0855 6.1015C3.17383 6.03383 3.27533 6 3.39 6H12.9995H13ZM12.6095 14H1.5C1.354 14 1.23417 13.9532 1.1405 13.8595C1.04683 13.7658 1 13.646 1 13.5V2.5C1 2.354 1.04683 2.23417 1.1405 2.1405C1.23417 2.04683 1.354 2 1.5 2H6L8 4H13.5C13.646 4 13.7658 4.04683 13.8595 4.1405C13.9532 4.23417 14 4.354 14 4.5V6H14.3595C14.5158 6 14.6435 6.06517 14.7425 6.1955C14.8415 6.32583 14.8753 6.469 14.844 6.625L13.094 13.625C13.0627 13.7397 13.0028 13.8308 12.9145 13.8985C12.8262 13.9662 12.7247 14 12.61 14H12.6095Z" fill="white"/>
</g>
</svg>
