<svg xmlns="http://www.w3.org/2000/svg" width="64" height="64" viewBox="0 0 64 64" fill="none">
    <path d="M32 54.56C32 55.3553 31.3547 56.0045 30.5608 55.9568C26.3199 55.7021 22.2131 54.3252 18.6663 51.9553C14.7195 49.3181 11.6434 45.5698 9.82689 41.1844C8.01039 36.799 7.53511 31.9734 8.46115 27.3178C9.3872 22.6623 11.673 18.3859 15.0294 15.0294C18.3859 11.673 22.6623 9.3872 27.3178 8.46115C31.9734 7.53511 36.799 8.01039 41.1844 9.82689C45.5698 11.6434 49.3181 14.7195 51.9553 18.6663C54.3252 22.2131 55.7021 26.3199 55.9568 30.5608C56.0045 31.3547 55.3553 32 54.56 32C53.7647 32 53.1251 31.3545 53.0709 30.5611C52.8203 26.8903 51.614 23.3395 49.5606 20.2664C47.2399 16.7932 43.9415 14.0862 40.0823 12.4877C36.2231 10.8891 31.9766 10.4709 27.8797 11.2858C23.7828 12.1007 20.0196 14.1122 17.0659 17.0659C14.1122 20.0196 12.1007 23.7828 11.2858 27.8797C10.4709 31.9766 10.8891 36.2231 12.4877 40.0823C14.0862 43.9414 16.7932 47.2399 20.2664 49.5606C23.3395 51.614 26.8902 52.8203 30.5611 53.0709C31.3545 53.1251 32 53.7647 32 54.56Z" fill="#0067F5"/>
</svg>