<svg width="212" height="40" viewBox="0 0 212 40" fill="none" xmlns="http://www.w3.org/2000/svg">
<path fill-rule="evenodd" clip-rule="evenodd" d="M1.68018 10.9863V7.97311C1.68018 6.30899 3.02921 4.95996 4.69332 4.95996H7.70647V7.97311V35.0914H1.68018V10.9863ZM26.2666 10.9863H13.7328V4.95996H26.2666C34.5871 4.95996 41.3323 11.7051 41.3323 20.0257C41.3323 28.3463 34.5871 35.0914 26.2666 35.0914L19.7591 35.0913L13.7328 35.0914V18.6795V15.6664H16.7459C18.41 15.6664 19.7591 17.0154 19.7591 18.6795V23.0388V25.2987V29.0011H27.3478C31.8304 28.4668 35.306 24.6521 35.306 20.0257C35.306 15.0333 31.2589 10.9863 26.2666 10.9863Z" fill="#F27405"/>
<path fill-rule="evenodd" clip-rule="evenodd" d="M1.68018 10.9863V7.97311C1.68018 6.30899 3.02921 4.95996 4.69332 4.95996H7.70647V7.97311V35.0914H1.68018V10.9863ZM26.2666 10.9863H13.7328V4.95996H26.2666C34.5871 4.95996 41.3323 11.7051 41.3323 20.0257C41.3323 28.3463 34.5871 35.0914 26.2666 35.0914L19.7591 35.0913L13.7328 35.0914V18.6795V15.6664H16.7459C18.41 15.6664 19.7591 17.0154 19.7591 18.6795V23.0388V25.2987V29.0011H27.3478C31.8304 28.4668 35.306 24.6521 35.306 20.0257C35.306 15.0333 31.2589 10.9863 26.2666 10.9863Z" fill="#F27405"/>
<path d="M61.6454 13.8456C61.532 12.7022 61.0454 11.8139 60.1854 11.1807C59.3255 10.5475 58.1584 10.231 56.6842 10.231C55.6825 10.231 54.8367 10.3727 54.1469 10.6562C53.457 10.9303 52.9278 11.313 52.5592 11.8044C52.2001 12.2958 52.0206 12.8534 52.0206 13.4771C52.0017 13.9968 52.1104 14.4504 52.3466 14.8379C52.5923 15.2253 52.9278 15.5608 53.353 15.8443C53.7783 16.1183 54.2697 16.3593 54.8273 16.5672C55.3848 16.7657 55.9802 16.9358 56.6133 17.0775L59.2215 17.7012C60.4878 17.9847 61.6502 18.3627 62.7086 18.8352C63.767 19.3077 64.6836 19.8889 65.4585 20.5788C66.2334 21.2686 66.8335 22.0813 67.2588 23.0169C67.6935 23.9524 67.9155 25.025 67.925 26.2346C67.9155 28.0112 67.4619 29.5516 66.5642 30.8557C65.6759 32.1503 64.3907 33.1567 62.7086 33.8749C61.0359 34.5837 59.0183 34.9381 56.6558 34.9381C54.3122 34.9381 52.271 34.579 50.5322 33.8608C48.8029 33.1426 47.4515 32.0794 46.4782 30.6714C45.5143 29.2539 45.0087 27.5009 44.9614 25.4124H50.9008C50.9669 26.3858 51.2457 27.1985 51.7371 27.8505C52.2379 28.4932 52.9042 28.9798 53.7358 29.3106C54.5768 29.6319 55.5266 29.7925 56.585 29.7925C57.6245 29.7925 58.5269 29.6413 59.2924 29.3389C60.0673 29.0365 60.6674 28.616 61.0926 28.0774C61.5179 27.5387 61.7305 26.9197 61.7305 26.2204C61.7305 25.5684 61.5368 25.0203 61.1493 24.5761C60.7713 24.132 60.2138 23.754 59.4767 23.4421C58.749 23.1303 57.856 22.8468 56.7976 22.5916L53.6365 21.7978C51.189 21.2025 49.2565 20.2716 47.839 19.0053C46.4215 17.739 45.7174 16.0333 45.7269 13.8881C45.7174 12.1304 46.1852 10.5948 47.1302 9.28125C48.0847 7.96769 49.3935 6.94237 51.0567 6.20526C52.7199 5.46816 54.6099 5.09961 56.7267 5.09961C58.8813 5.09961 60.7619 5.46816 62.3684 6.20526C63.9843 6.94237 65.2412 7.96769 66.1389 9.28125C67.0367 10.5948 67.4997 12.1163 67.5281 13.8456H61.6454Z" fill="#024089"/>
<path d="M80.9792 34.9522C78.749 34.9522 76.8306 34.4797 75.2241 33.5347C73.6271 32.5803 72.3986 31.2573 71.5386 29.5657C70.6881 27.8742 70.2629 25.9275 70.2629 23.7256C70.2629 21.4954 70.6929 19.5393 71.5528 17.8571C72.4222 16.1656 73.6554 14.8473 75.2525 13.9023C76.8495 12.9479 78.749 12.4706 80.9509 12.4706C82.8503 12.4706 84.5135 12.8156 85.9405 13.5054C87.3674 14.1953 88.4967 15.1639 89.3283 16.4113C90.1599 17.6587 90.6182 19.1235 90.7033 20.8056H85.0049C84.8443 19.7188 84.419 18.8447 83.7292 18.1832C83.0488 17.5122 82.1557 17.1767 81.0501 17.1767C80.1145 17.1767 79.2971 17.4319 78.5978 17.9422C77.9079 18.443 77.3693 19.1754 76.9818 20.1393C76.5944 21.1032 76.4007 22.2703 76.4007 23.6406C76.4007 25.0297 76.5897 26.211 76.9677 27.1843C77.3551 28.1577 77.8985 28.8995 78.5978 29.4098C79.2971 29.9201 80.1145 30.1753 81.0501 30.1753C81.7399 30.1753 82.3589 30.0335 82.907 29.75C83.4646 29.4665 83.9229 29.0554 84.282 28.5168C84.6505 27.9687 84.8915 27.3119 85.0049 26.5464H90.7033C90.6088 28.2097 90.1552 29.6744 89.3425 30.9407C88.5392 32.1976 87.4289 33.1804 86.0113 33.8891C84.5938 34.5979 82.9165 34.9522 80.9792 34.9522Z" fill="#024089"/>
<path d="M99.9799 34.9381C98.5907 34.9381 97.3528 34.6971 96.266 34.2151C95.1792 33.7237 94.3193 33.0008 93.6861 32.0464C93.0624 31.0825 92.7506 29.8823 92.7506 28.4459C92.7506 27.2363 92.9727 26.2204 93.4168 25.3983C93.861 24.5761 94.4658 23.9146 95.2312 23.4138C95.9967 22.9129 96.8661 22.5349 97.8394 22.2798C98.8222 22.0246 99.8523 21.8451 100.93 21.7411C102.196 21.6088 103.216 21.486 103.991 21.3726C104.766 21.2497 105.329 21.0702 105.678 20.8339C106.028 20.5977 106.203 20.248 106.203 19.785V19.6999C106.203 18.8022 105.919 18.1076 105.352 17.6162C104.795 17.1248 104.001 16.8791 102.971 16.8791C101.884 16.8791 101.019 17.12 100.377 17.602C99.7342 18.0745 99.3089 18.6698 99.101 19.3881L93.516 18.9345C93.7995 17.6114 94.3571 16.468 95.1887 15.5041C96.0203 14.5307 97.0929 13.7842 98.4064 13.2644C99.7294 12.7352 101.26 12.4706 102.999 12.4706C104.209 12.4706 105.366 12.6124 106.472 12.8959C107.587 13.1794 108.575 13.6188 109.435 14.2142C110.304 14.8095 110.989 15.575 111.49 16.5105C111.991 17.4366 112.241 18.547 112.241 19.8417V34.527H106.515V31.5077H106.344C105.995 32.1881 105.527 32.7882 104.941 33.3079C104.355 33.8182 103.651 34.2199 102.829 34.5128C102.007 34.7963 101.057 34.9381 99.9799 34.9381ZM101.709 30.7706C102.598 30.7706 103.382 30.5958 104.062 30.2461C104.743 29.887 105.277 29.4051 105.664 28.8003C106.051 28.1955 106.245 27.5103 106.245 26.7449V24.4344C106.056 24.5572 105.796 24.6706 105.466 24.7746C105.144 24.8691 104.78 24.9588 104.374 25.0439C103.968 25.1195 103.561 25.1904 103.155 25.2565C102.749 25.3132 102.38 25.3652 102.049 25.4124C101.341 25.5164 100.722 25.6818 100.192 25.9086C99.6633 26.1354 99.2522 26.4425 98.9593 26.8299C98.6663 27.2079 98.5198 27.6805 98.5198 28.2475C98.5198 29.0696 98.8175 29.698 99.4129 30.1327C100.018 30.558 100.783 30.7706 101.709 30.7706Z" fill="#024089"/>
<path d="M122.166 21.9396V34.527H116.128V12.7541H121.883V16.5956H122.138C122.62 15.3293 123.428 14.3276 124.562 13.5905C125.696 12.8439 127.071 12.4706 128.687 12.4706C130.199 12.4706 131.517 12.8014 132.642 13.4629C133.766 14.1244 134.64 15.0694 135.264 16.2979C135.888 17.5169 136.2 18.9722 136.2 20.6638V34.527H130.161V21.7411C130.171 20.4087 129.83 19.3692 129.14 18.6226C128.451 17.8666 127.501 17.4886 126.291 17.4886C125.479 17.4886 124.76 17.6634 124.137 18.0131C123.522 18.3627 123.04 18.873 122.691 19.544C122.351 20.2055 122.176 21.004 122.166 21.9396Z" fill="#024089"/>
<path d="M143.69 34.8955C142.755 34.8955 141.951 34.5648 141.28 33.9033C140.619 33.2323 140.288 32.4291 140.288 31.4935C140.288 30.5674 140.619 29.7736 141.28 29.1121C141.951 28.4506 142.755 28.1199 143.69 28.1199C144.597 28.1199 145.391 28.4506 146.072 29.1121C146.752 29.7736 147.092 30.5674 147.092 31.4935C147.092 32.1172 146.932 32.689 146.61 33.2087C146.298 33.719 145.887 34.1301 145.377 34.4419C144.867 34.7443 144.304 34.8955 143.69 34.8955Z" fill="#024089"/>
<path d="M157.29 21.9396V34.527H151.252V12.7541H157.007V16.5956H157.262C157.744 15.3293 158.552 14.3276 159.686 13.5905C160.82 12.8439 162.195 12.4706 163.811 12.4706C165.323 12.4706 166.641 12.8014 167.765 13.4629C168.89 14.1244 169.764 15.0694 170.388 16.2979C171.012 17.5169 171.323 18.9722 171.323 20.6638V34.527H165.285V21.7411C165.294 20.4087 164.954 19.3692 164.264 18.6226C163.574 17.8666 162.625 17.4886 161.415 17.4886C160.602 17.4886 159.884 17.6634 159.26 18.0131C158.646 18.3627 158.164 18.873 157.815 19.544C157.474 20.2055 157.3 21.004 157.29 21.9396Z" fill="#024089"/>
<path d="M185.207 34.9522C182.967 34.9522 181.039 34.4986 179.423 33.5914C177.817 32.6748 176.579 31.3801 175.71 29.7075C174.84 28.0254 174.405 26.0361 174.405 23.7398C174.405 21.5001 174.84 19.5345 175.71 17.843C176.579 16.1514 177.803 14.8331 179.381 13.8881C180.969 12.9431 182.83 12.4706 184.966 12.4706C186.402 12.4706 187.739 12.7022 188.977 13.1652C190.225 13.6188 191.312 14.3039 192.238 15.2206C193.173 16.1372 193.901 17.2901 194.421 18.6793C194.94 20.059 195.2 21.675 195.2 23.5272V25.1856H176.815V21.4434H189.516C189.516 20.574 189.327 19.8039 188.949 19.1329C188.571 18.4619 188.047 17.9375 187.376 17.5595C186.714 17.172 185.944 16.9783 185.065 16.9783C184.148 16.9783 183.336 17.1909 182.627 17.6162C181.928 18.032 181.38 18.5942 180.983 19.303C180.586 20.0023 180.383 20.7819 180.373 21.6419V25.1998C180.373 26.2771 180.572 27.2079 180.969 27.9923C181.375 28.7767 181.947 29.3815 182.684 29.8067C183.421 30.232 184.295 30.4446 185.306 30.4446C185.977 30.4446 186.591 30.3501 187.149 30.1611C187.706 29.9721 188.184 29.6886 188.581 29.3106C188.977 28.9326 189.28 28.4695 189.488 27.9214L195.073 28.29C194.789 29.6319 194.208 30.8037 193.329 31.8054C192.46 32.7976 191.335 33.5725 189.955 34.1301C188.585 34.6782 187.002 34.9522 185.207 34.9522Z" fill="#024089"/>
<path d="M209.924 12.7541V17.2901H196.812V12.7541H209.924ZM199.788 7.53772H205.827V27.8364C205.827 28.3939 205.912 28.8286 206.082 29.1405C206.252 29.4429 206.489 29.6555 206.791 29.7784C207.103 29.9012 207.462 29.9626 207.868 29.9626C208.152 29.9626 208.435 29.939 208.719 29.8918C209.002 29.8351 209.22 29.7925 209.371 29.7642L210.32 34.2577C210.018 34.3522 209.593 34.4608 209.045 34.5837C208.497 34.716 207.83 34.7963 207.046 34.8247C205.591 34.8814 204.315 34.6876 203.219 34.2435C202.132 33.7993 201.286 33.1095 200.681 32.1739C200.077 31.2384 199.779 30.0571 199.788 28.6302V7.53772Z" fill="#024089"/>
</svg>
