<?xml version="1.0" standalone="no"?>
<!DOCTYPE svg PUBLIC "-//W3C//DTD SVG 20010904//EN"
 "http://www.w3.org/TR/2001/REC-SVG-20010904/DTD/svg10.dtd">
<svg version="1.0" xmlns="http://www.w3.org/2000/svg"
 width="212.000000pt" height="40.000000pt" viewBox="0 0 212.000000 40.000000"
 preserveAspectRatio="xMidYMid meet">

<g transform="translate(0.000000,40.000000) scale(0.100000,-0.100000)"
fill="#000000" stroke="none">
<path d="M195 245 c-14 -13 -25 -36 -25 -50 0 -32 41 -75 72 -75 26 0 68 25
68 41 0 12 -37 12 -45 -1 -10 -16 -42 -12 -49 6 -18 47 10 87 45 66 12 -8 26
-9 36 -4 13 8 12 11 -8 26 -33 23 -66 20 -94 -9z"/>
<path d="M1076 248 c-22 -31 -20 -91 2 -111 36 -33 92 -11 92 36 0 32 -13 47
-46 56 l-29 9 33 7 c42 10 41 25 -2 25 -25 0 -39 -7 -50 -22z m62 -71 c4 -21
-27 -35 -38 -17 -12 19 0 42 19 38 9 -2 17 -11 19 -21z"/>
<path d="M346 214 c-24 -23 -20 -27 20 -19 21 4 34 3 30 -3 -3 -5 -19 -12 -37
-16 -25 -5 -30 -10 -27 -28 3 -20 9 -23 56 -24 l52 -1 0 34 c0 50 -16 73 -50
73 -16 0 -36 -7 -44 -16z m54 -54 c0 -5 -9 -10 -21 -10 -11 0 -17 5 -14 10 3
6 13 10 21 10 8 0 14 -4 14 -10z"/>
<path d="M460 175 l0 -55 80 0 80 0 0 55 c0 42 -3 55 -15 55 -11 0 -15 -11
-15 -40 0 -29 -4 -40 -15 -40 -11 0 -15 11 -15 40 0 29 -4 40 -15 40 -11 0
-15 -11 -15 -40 0 -29 -4 -40 -15 -40 -11 0 -15 11 -15 40 0 33 -3 40 -20 40
-18 0 -20 -7 -20 -55z"/>
<path d="M666 214 c-24 -23 -20 -27 20 -19 21 4 34 3 30 -3 -3 -5 -19 -12 -37
-16 -25 -5 -30 -10 -27 -28 3 -20 9 -23 56 -24 l52 -1 0 34 c0 50 -16 73 -50
73 -16 0 -36 -7 -44 -16z m54 -54 c0 -5 -9 -10 -21 -10 -11 0 -17 5 -14 10 3
6 13 10 21 10 8 0 14 -4 14 -10z"/>
<path d="M860 175 c0 -63 16 -72 49 -27 l20 27 1 -27 c0 -18 5 -28 15 -28 12
0 15 13 15 55 0 63 -16 72 -49 28 l-20 -28 -1 28 c0 17 -5 27 -15 27 -12 0
-15 -13 -15 -55z"/>
<path d="M1206 214 c-24 -23 -20 -27 20 -19 21 4 34 3 30 -3 -3 -5 -19 -12
-37 -16 -25 -5 -30 -10 -27 -28 3 -20 9 -23 56 -24 l52 -1 0 34 c0 50 -16 73
-50 73 -16 0 -36 -7 -44 -16z m54 -54 c0 -5 -9 -10 -21 -10 -11 0 -17 5 -14
10 3 6 13 10 21 10 8 0 14 -4 14 -10z"/>
<path d="M1330 191 c0 -22 -5 -41 -12 -43 -17 -6 0 -28 22 -28 20 0 30 19 30
56 0 15 6 24 15 24 11 0 15 -11 15 -40 0 -33 3 -40 20 -40 18 0 20 7 20 55 l0
55 -55 0 -55 0 0 -39z"/>
<path d="M1470 191 c0 -22 -5 -41 -12 -43 -17 -6 0 -28 22 -28 20 0 30 19 30
56 0 15 6 24 15 24 11 0 15 -11 15 -40 0 -33 3 -40 20 -40 18 0 20 7 20 55 l0
55 -55 0 -55 0 0 -39z"/>
<path d="M1616 214 c-24 -23 -20 -27 20 -19 21 4 34 3 30 -3 -3 -5 -19 -12
-37 -16 -25 -5 -30 -10 -27 -28 3 -20 9 -23 56 -24 l52 -1 0 34 c0 50 -16 73
-50 73 -16 0 -36 -7 -44 -16z m54 -54 c0 -5 -9 -10 -21 -10 -11 0 -17 5 -14
10 3 6 13 10 21 10 8 0 14 -4 14 -10z"/>
<path d="M1746 214 c-49 -48 13 -117 75 -84 31 17 23 32 -12 25 -33 -8 -52 6
-42 32 4 9 15 12 39 7 19 -3 34 -4 34 -1 0 14 -34 37 -55 37 -13 0 -31 -7 -39
-16z"/>
<path d="M1850 215 c0 -8 7 -15 15 -15 11 0 15 -11 15 -40 0 -33 3 -40 20 -40
17 0 20 7 20 40 0 29 4 40 15 40 8 0 15 7 15 15 0 11 -12 15 -50 15 -38 0 -50
-4 -50 -15z"/>
</g>
</svg>
