<svg width="17" height="16" viewBox="0 0 17 16" fill="none" xmlns="http://www.w3.org/2000/svg">
<path d="M8 7.5V2C8 1.854 8.04683 1.73417 8.1405 1.6405C8.23417 1.54683 8.354 1.5 8.5 1.5C8.646 1.5 8.76583 1.54683 8.8595 1.6405C8.95317 1.73417 9 1.854 9 2V7.5H14.5C14.646 7.5 14.7658 7.54683 14.8595 7.6405C14.9532 7.73417 15 7.854 15 8C15 8.146 14.9532 8.26583 14.8595 8.3595C14.7658 8.45317 14.646 8.5 14.5 8.5H9V14C9 14.146 8.95317 14.2658 8.8595 14.3595C8.76583 14.4532 8.646 14.5 8.5 14.5C8.354 14.5 8.23417 14.4532 8.1405 14.3595C8.04683 14.2658 8 14.146 8 14V8.5H2.5C2.354 8.5 2.23417 8.45317 2.1405 8.3595C2.04683 8.26583 2 8.146 2 8C2 7.854 2.04683 7.73417 2.1405 7.6405C2.23417 7.54683 2.354 7.5 2.5 7.5H8Z" fill="white"/>
</svg>
