<svg width="16" height="16" viewBox="0 0 16 16" fill="none" xmlns="http://www.w3.org/2000/svg">
<g id="&#240;&#159;&#167;&#172;save">
<g id="shape">
<path d="M5.5 11C5.22386 11 5 11.2239 5 11.5C5 11.7761 5.22386 12 5.5 12H10.5C10.7761 12 11 11.7761 11 11.5C11 11.2239 10.7761 11 10.5 11H5.5Z" fill="#1C1C1C"/>
<path fill-rule="evenodd" clip-rule="evenodd" d="M12 1L15 4V13C15 14.1046 14.1046 15 13 15H3C1.89543 15 1 14.1046 1 13V3C1 1.89543 1.89543 1 3 1H12ZM2 13C2 13.5523 2.44772 14 3 14V8H13V14C13.5523 14 14 13.5523 14 13V4.41421L11.5858 2H11V5H5V2H3C2.44772 2 2 2.44772 2 3V13ZM6 4H10V2H6V4ZM12 9V14H4V9H12Z" fill="#1C1C1C"/>
</g>
</g>
</svg>
