<svg width="16" height="16" viewBox="0 0 16 16" fill="none" xmlns="http://www.w3.org/2000/svg">
<g id="&#240;&#159;&#167;&#172;warning.triangle-fill">
<path id="shape" fill-rule="evenodd" clip-rule="evenodd" d="M9.02703 2.57268L14.8412 12.2858C15.053 12.6395 15.0529 13.0752 14.8411 13.4289C14.6293 13.7826 14.2378 14.0002 13.8142 14H2.1858C1.76236 14.0004 1.3709 13.7826 1.15894 13.4289C0.947131 13.0752 0.946967 12.6395 1.15877 12.2858L6.97297 2.57268C7.18445 2.21849 7.57606 2 8 2C8.42394 2 8.81555 2.21832 9.02703 2.57268ZM8 5.00391C7.58579 5.00391 7.25 5.33969 7.25 5.75391V8.75488C7.25 9.1691 7.58579 9.50488 8 9.50488C8.41421 9.50488 8.75 9.1691 8.75 8.75488V5.75391C8.75 5.33969 8.41421 5.00391 8 5.00391ZM8 10.5033C7.58579 10.5033 7.25 10.8391 7.25 11.2533C7.25 11.6675 7.58579 12.0033 8 12.0033C8.41421 12.0033 8.75 11.6675 8.75 11.2533C8.75 10.8391 8.41421 10.5033 8 10.5033Z" fill="#CB0B00"/>
</g>
</svg>
